<!DOCTYPE svg PUBLIC "-//W3C//DTD SVG 1.1//EN" "http://www.w3.org/Graphics/SVG/1.1/DTD/svg11.dtd">
<!-- Uploaded to: SVG Repo, www.svgrepo.com, Transformed by: SVG Repo Mixer Tools -->
<svg fill="#d22d56" width="800px" height="800px" viewBox="0 0 24 24" xmlns="http://www.w3.org/2000/svg" stroke="#d22d56" stroke-width="0.00024000000000000003">
<g id="SVGRepo_bgCarrier" stroke-width="0"/>
<g id="SVGRepo_tracerCarrier" stroke-linecap="round" stroke-linejoin="round"/>
<g id="SVGRepo_iconCarrier">
<path d="M12,2a8.945,8.945,0,0,0-9,8.889,8.826,8.826,0,0,0,3.375,6.933v1.956A2.236,2.236,0,0,0,8.625,22h6.75a2.236,2.236,0,0,0,2.25-2.222V17.822A8.826,8.826,0,0,0,21,10.889,8.945,8.945,0,0,0,12,2ZM11,20H9V18a1,1,0,0,1,2,0ZM9,15a2,2,0,1,1,2-2A2,2,0,0,1,9,15Zm6,5H13V18a1,1,0,0,1,2,0Zm0-5a2,2,0,1,1,2-2A2,2,0,0,1,15,15Z"/>
</g>
</svg>